<svg xmlns="http://www.w3.org/2000/svg" viewBox="0 0 3350 600"><defs><style>.a{isolation:isolate;}.b{fill:#34c1bd;}.c{fill:#43d6d2;opacity:0.9;}.d{fill:#cdf9f0;opacity:0.92;}.e{fill:#85edc2;mix-blend-mode:multiply;}.f{fill:#fff;}</style></defs><title>NonStopStory.05.03.02</title><g class="a"><path class="b" d="M300,101.9c-132.25,0-239.47,86.79-239.47,193.85v110.4C60.53,513.21,167.75,600,300,600s239.47-86.79,239.47-193.85V295.75C539.47,188.69,432.25,101.9,300,101.9Z"/><path class="c" d="M300,42.46c-132.25,0-239.47,86.79-239.47,193.85v93.41c0,107.06,107.22,193.85,239.47,193.85s239.47-86.79,239.47-193.85V236.31C539.47,129.25,432.25,42.46,300,42.46Z"/><path class="d" d="M300,0C167.75,0,60.53,86.79,60.53,193.85V253.3c0,107.06,107.22,193.85,239.47,193.85S539.47,360.36,539.47,253.3V193.85C539.47,86.79,432.25,0,300,0Z"/><ellipse class="e" cx="300" cy="193.85" rx="239.47" ry="193.85"/><path class="f" d="M900.13,318.41H781V454.15h-49.8V144.09H781V275H900.13V144.09h50.29V454.15H900.13Z"/><path class="f" d="M1018.08,271q0-18.06,4.88-30.76,12.21-29.29,62.5-29.3H1128q21,0,35.15,4.89,32.24,10.74,32.23,55.17V398q0,18.06-4.88,30.76-12.23,29.3-62.5,29.3h-42.49q-21,0-35.15-4.89-32.24-10.73-32.23-55.17Zm53.71-19.53q-4.39.5-5.37,5.37V412.16c.32,2.93,2.12,4.72,5.37,5.37h69.83c2.93-.32,4.71-2.11,5.37-5.37V256.88c-.33-2.93-2.12-4.71-5.37-5.37Z"/><path class="f" d="M1259.57,454.15V124.56h47.86V454.15Z"/><path class="f" d="M1371.67,271q0-18.06,4.88-30.76,12.21-29.29,62.5-29.3h42.49q21,0,35.15,4.89,32.24,10.74,32.23,55.17V398q0,18.06-4.88,30.76-12.22,29.3-62.5,29.3h-42.49q-21,0-35.15-4.89-32.24-10.73-32.23-55.17Zm53.71-19.53q-4.39.5-5.37,5.37V412.16c.32,2.93,2.12,4.72,5.37,5.37h69.83c2.93-.32,4.71-2.11,5.37-5.37V256.88c-.33-2.93-2.12-4.71-5.37-5.37Z"/><path class="f" d="M1761.47,275.93a111,111,0,0,1,14.65,1q60.06,6.36,60.06,64.94v53.23q-3.43,62.51-73.73,61l-119.63-2V410.69h136.23q5.37-.48,6.34-6.35V327.2q-.48-5.37-6.34-6.35h-67.87q-72.77-.48-73.73-65.43v-45.9a88.44,88.44,0,0,1,3.41-24.9q13.19-43.45,71.29-42.48l114.26,2v43.46H1694.57q-5.37.49-6.34,6.35v75.68q.48,5.37,6.34,6.35Z"/><path class="f" d="M1954.13,458.06q-21,0-35.15-4.89-32.24-10.73-32.23-55.17V271q0-18.06,4.88-30.76,12.21-29.29,62.5-29.3h73.73v40.53h-87.4q-4.39.5-5.37,5.37V412.16q.48,4.39,5.37,5.37h87.4v40.53Z"/><path class="f" d="M2189.77,211q17.57,0,29.29,3.91,27.34,9.29,27.35,49.32V454.15h-47.86V255.42c-.32-2.93-2.12-4.72-5.37-5.37H2125.8q-4.4.49-5.37,5.37l.49,198.73h-47.85l-.49-329.59h47.85V234.91q9.27-23.43,42-23.93Z"/><path class="f" d="M2370.71,457.08q-21,0-35.16-4.88-32.22-10.74-32.22-55.18V268.6q0-23.91,7.32-37.11Q2322.36,211,2364.36,211h47.85q24.42,0,38.58,6.35,23.43,10.75,23.44,51.27v93.26H2351.67v49.32q.48,4.4,5.37,5.37h111.33v40.53Zm-19-129.88h75.19V255.42c-.32-2.93-2.12-4.72-5.37-5.37H2357q-4.39.49-5.37,5.37Z"/><path class="f" d="M2701.56,124.56V454.15h-42.48l-4.4-27.34q-6.84,30.75-43.45,31.25h-26.86q-16.6,0-28.32-3.91-28.32-9.27-28.32-49.81V269.58q0-21.48,6.84-34.18,11.71-22,55.17-22l63.48.48V124.56ZM2653.22,253l-72.76-1c-2.92.33-4.72,2.12-5.37,5.37V413.62c.32,2.93,2.12,4.72,5.37,5.37h67.88c2.6-.32,4.22-2.11,4.88-5.37Z"/><path class="f" d="M2820,458.06q-16.11,0-27.83-3.42-29.3-9.27-29.29-50.3V214.89h48.33V413.62q.49,4.39,5.38,5.37h72.75l-.49-204.1h47.85l1,239.26h-43l-3.91-26.86q-6.84,30.29-43.45,30.77Z"/><path class="f" d="M3006.32,454.15V124.56h47.85V454.15Z"/><path class="f" d="M3186.29,457.08q-21,0-35.16-4.88-32.22-10.74-32.22-55.18V268.6q0-23.91,7.32-37.11Q3137.95,211,3179.94,211h47.85q24.42,0,38.58,6.35,23.43,10.75,23.43,51.27v93.26H3167.25v49.32q.48,4.4,5.37,5.37H3284v40.53Zm-19-129.88h75.19V255.42q-.49-4.39-5.37-5.37h-64.45c-2.93.33-4.73,2.12-5.37,5.37Z"/></g></svg>