<svg xmlns="http://www.w3.org/2000/svg" viewBox="0 0 16 9">
  <defs>
    <linearGradient id="gradient" gradientTransform="rotate(-20)">
      <stop offset="0%" stop-color="rgb(45, 66, 255)"/>
      <stop offset="74.96%" stop-color="rgb(156, 99, 250)"/>
    </linearGradient>
  </defs>
  <path fill="url(#gradient)" d="M0,0V8H.4A1.2,1.2,0,0,1,2.8,8H16V0Z"/>
  <circle r="1" cx="1.6" cy="8" fill="url(#gradient)"/>
  <path fill="white"
        d="M3.189,4.571l.025-.128c-.063,0-.094-.026-.094-.074a.07.07,0,0,1,.024-.057.1.1,0,0,1,.069-.021h.032l.039-.2H3.213a.1.1,0,0,1-.069-.022.072.072,0,0,1-.024-.055.064.064,0,0,1,.024-.054.1.1,0,0,1,.069-.021h.1l.033-.157a.282.282,0,0,1,.017-.062.074.074,0,0,1,.025-.034.068.068,0,0,1,.042-.012.072.072,0,0,1,.055.019.066.066,0,0,1,.019.05s0,.027-.011.068l-.026.128h.15l.033-.157c.005-.024.009-.043.013-.057a.078.078,0,0,1,.022-.037.062.062,0,0,1,.047-.015.078.078,0,0,1,.055.018.067.067,0,0,1,.02.05.246.246,0,0,1,0,.028l0,.027,0,.015-.026.129c.066,0,.1.026.1.076a.069.069,0,0,1-.024.055.1.1,0,0,1-.069.02H3.743l-.041.2h.076a.1.1,0,0,1,.069.022.076.076,0,0,1,0,.11.108.108,0,0,1-.07.02h-.1L3.641,4.6c0,.025-.01.044-.014.058a.072.072,0,0,1-.022.036.067.067,0,0,1-.047.016.073.073,0,0,1-.054-.02.067.067,0,0,1-.02-.05.3.3,0,0,1,.01-.07l.025-.128H3.368L3.336,4.6a.326.326,0,0,1-.026.083.057.057,0,0,1-.057.027.076.076,0,0,1-.055-.02.066.066,0,0,1-.019-.05.236.236,0,0,1,0-.035Zm.4-.479H3.438l-.041.2H3.55Zm1.332-.234H4.7v.729a.131.131,0,0,1-.028.092.1.1,0,0,1-.146,0A.13.13,0,0,1,4.5,4.587V3.858H4.276A.118.118,0,0,1,4.2,3.836a.08.08,0,0,1-.026-.061A.073.073,0,0,1,4.2,3.714a.113.113,0,0,1,.076-.023h.645A.113.113,0,0,1,5,3.715a.074.074,0,0,1,.025.06A.077.077,0,0,1,5,3.836.121.121,0,0,1,4.921,3.858Zm.274.21.122.416L5.428,4.1c.012-.041.021-.068.026-.083a.123.123,0,0,1,.032-.043.1.1,0,0,1,.065-.02.1.1,0,0,1,.065.02.118.118,0,0,1,.033.044.7.7,0,0,1,.027.082l.111.387.123-.416A.611.611,0,0,1,5.93,4a.09.09,0,0,1,.025-.037.084.084,0,0,1,.051-.015.082.082,0,0,1,.058.023.073.073,0,0,1,.025.055.278.278,0,0,1-.021.087l-.152.447c-.014.038-.024.066-.031.082a.125.125,0,0,1-.035.045.093.093,0,0,1-.064.021.1.1,0,0,1-.067-.022.125.125,0,0,1-.036-.052.791.791,0,0,1-.025-.08l-.107-.364-.1.364a.473.473,0,0,1-.045.115.093.093,0,0,1-.084.039.1.1,0,0,1-.088-.047.262.262,0,0,1-.025-.053l-.018-.048-.15-.447a.283.283,0,0,1-.023-.087.075.075,0,0,1,.024-.054A.085.085,0,0,1,5.1,3.951a.07.07,0,0,1,.063.026A.443.443,0,0,1,5.2,4.068Zm1.117-.2a.1.1,0,0,1-.067-.025.084.084,0,0,1-.028-.067.083.083,0,0,1,.029-.065.092.092,0,0,1,.066-.026.1.1,0,0,1,.064.023.081.081,0,0,1,.028.068.086.086,0,0,1-.027.067A.1.1,0,0,1,6.312,3.865Zm.092.192V4.6a.119.119,0,0,1-.027.085.089.089,0,0,1-.134,0A.122.122,0,0,1,6.217,4.6V4.063a.122.122,0,0,1,.026-.084.088.088,0,0,1,.067-.028.09.09,0,0,1,.067.028A.109.109,0,0,1,6.4,4.057Zm.2-.09h.02V3.855a.641.641,0,0,1,0-.07.1.1,0,0,1,.014-.044.071.071,0,0,1,.031-.031A.088.088,0,0,1,6.721,3.7a.1.1,0,0,1,.064.026.077.077,0,0,1,.024.044.43.43,0,0,1,0,.072v.127h.069a.085.085,0,0,1,.06.02.06.06,0,0,1,.021.048.054.054,0,0,1-.03.053.208.208,0,0,1-.085.014H6.814v.344a.582.582,0,0,0,0,.067.07.07,0,0,0,.016.038.059.059,0,0,0,.044.015.215.215,0,0,0,.044-.006.234.234,0,0,1,.044-.006.057.057,0,0,1,.041.018.063.063,0,0,1,.018.045.074.074,0,0,1-.049.069.331.331,0,0,1-.142.025A.238.238,0,0,1,6.7,4.68.132.132,0,0,1,6.642,4.6a.512.512,0,0,1-.015-.138V4.1H6.6a.091.091,0,0,1-.061-.018.062.062,0,0,1-.021-.049.06.06,0,0,1,.021-.048A.1.1,0,0,1,6.607,3.967Zm.5,0h.02V3.855c0-.029,0-.053,0-.07a.12.12,0,0,1,.014-.044A.077.077,0,0,1,7.17,3.71.09.09,0,0,1,7.216,3.7a.093.093,0,0,1,.064.026.085.085,0,0,1,.025.044.43.43,0,0,1,0,.072v.127h.068a.082.082,0,0,1,.06.02.057.057,0,0,1,.021.048.054.054,0,0,1-.029.053.211.211,0,0,1-.085.014H7.31v.344a.582.582,0,0,0,0,.067.063.063,0,0,0,.016.038.057.057,0,0,0,.044.015.224.224,0,0,0,.044-.006.234.234,0,0,1,.044-.006.053.053,0,0,1,.04.018.06.06,0,0,1,.019.045.075.075,0,0,1-.049.069.331.331,0,0,1-.142.025A.244.244,0,0,1,7.2,4.68.136.136,0,0,1,7.137,4.6a.563.563,0,0,1-.014-.138V4.1H7.1a.094.094,0,0,1-.062-.018.065.065,0,0,1-.021-.049.058.058,0,0,1,.022-.048A.1.1,0,0,1,7.1,3.967Zm1.006.41H7.744a.25.25,0,0,0,.026.112.168.168,0,0,0,.066.073.178.178,0,0,0,.091.025.225.225,0,0,0,.061-.008.22.22,0,0,0,.054-.025.429.429,0,0,0,.048-.036c.014-.012.034-.03.056-.052a.066.066,0,0,1,.042-.012.069.069,0,0,1,.046.015.058.058,0,0,1,.018.045.125.125,0,0,1-.02.059.239.239,0,0,1-.06.065.335.335,0,0,1-.1.051.427.427,0,0,1-.139.022.352.352,0,0,1-.38-.381.484.484,0,0,1,.025-.155.358.358,0,0,1,.071-.121.327.327,0,0,1,.117-.077.417.417,0,0,1,.153-.027A.358.358,0,0,1,8.106,4a.306.306,0,0,1,.118.119.316.316,0,0,1,.039.149.1.1,0,0,1-.04.092A.252.252,0,0,1,8.109,4.377ZM7.744,4.27h.339a.225.225,0,0,0-.052-.142.152.152,0,0,0-.118-.048.15.15,0,0,0-.115.048A.243.243,0,0,0,7.744,4.27Zm.861.171V4.6a.117.117,0,0,1-.026.085.087.087,0,0,1-.068.03.083.083,0,0,1-.066-.03A.119.119,0,0,1,8.419,4.6V4.077c0-.084.03-.126.091-.126a.078.078,0,0,1,.067.03.165.165,0,0,1,.022.087.347.347,0,0,1,.069-.087.145.145,0,0,1,.094-.03.249.249,0,0,1,.114.03.088.088,0,0,1,.056.077.077.077,0,0,1-.024.057.073.073,0,0,1-.051.022.241.241,0,0,1-.05-.012.213.213,0,0,0-.069-.013.1.1,0,0,0-.067.021.146.146,0,0,0-.04.064.392.392,0,0,0-.02.1A1.4,1.4,0,0,0,8.605,4.441Zm1.552-.049a.286.286,0,0,1-.047.163.316.316,0,0,1-.136.115.524.524,0,0,1-.214.041.483.483,0,0,1-.245-.057A.328.328,0,0,1,9.4,4.547a.249.249,0,0,1-.042-.131.086.086,0,0,1,.026-.064.087.087,0,0,1,.065-.026.078.078,0,0,1,.054.02.177.177,0,0,1,.038.061.424.424,0,0,0,.041.08.2.2,0,0,0,.063.054.244.244,0,0,0,.106.02A.23.23,0,0,0,9.9,4.519a.126.126,0,0,0,.057-.105.113.113,0,0,0-.03-.081.2.2,0,0,0-.079-.047c-.033-.011-.076-.023-.129-.035a.938.938,0,0,1-.181-.059A.289.289,0,0,1,9.423,4.1a.242.242,0,0,1-.043-.145.258.258,0,0,1,.045-.147.276.276,0,0,1,.131-.1.513.513,0,0,1,.2-.035.476.476,0,0,1,.159.023.341.341,0,0,1,.112.06.252.252,0,0,1,.065.081.186.186,0,0,1,.02.081.1.1,0,0,1-.025.065.081.081,0,0,1-.064.029A.077.077,0,0,1,9.971,4a.239.239,0,0,1-.039-.058.257.257,0,0,0-.066-.088.191.191,0,0,0-.123-.032.22.22,0,0,0-.127.034.1.1,0,0,0-.048.083.086.086,0,0,0,.016.053.144.144,0,0,0,.046.037.209.209,0,0,0,.058.024l.1.027a1.226,1.226,0,0,1,.153.044.472.472,0,0,1,.117.057.251.251,0,0,1,.075.087A.275.275,0,0,1,10.157,4.392Zm.332-.336v.023a.37.37,0,0,1,.11-.1.269.269,0,0,1,.128-.03A.3.3,0,0,1,10.886,4a.309.309,0,0,1,.114.13.457.457,0,0,1,.042.2.508.508,0,0,1-.024.158.38.38,0,0,1-.067.121.289.289,0,0,1-.1.075.3.3,0,0,1-.125.027.254.254,0,0,1-.134-.033.376.376,0,0,1-.1-.094v.28c0,.081-.03.122-.09.122a.069.069,0,0,1-.069-.032.183.183,0,0,1-.018-.091V4.057a.118.118,0,0,1,.024-.08.083.083,0,0,1,.063-.026.088.088,0,0,1,.065.027A.116.116,0,0,1,10.489,4.056Zm.365.272a.3.3,0,0,0-.022-.127.181.181,0,0,0-.062-.082.15.15,0,0,0-.088-.029.166.166,0,0,0-.131.062.266.266,0,0,0-.053.179.259.259,0,0,0,.053.173.162.162,0,0,0,.131.062.153.153,0,0,0,.086-.027.188.188,0,0,0,.063-.081A.318.318,0,0,0,10.854,4.328Zm.809.277a.563.563,0,0,1-.131.079.363.363,0,0,1-.142.027.255.255,0,0,1-.126-.03.2.2,0,0,1-.083-.076A.187.187,0,0,1,11.15,4.5a.192.192,0,0,1,.049-.131.239.239,0,0,1,.134-.072l.088-.019.12-.026c.034-.008.07-.018.109-.03a.191.191,0,0,0-.029-.108.134.134,0,0,0-.109-.034A.252.252,0,0,0,11.4,4.1a.183.183,0,0,0-.061.06c-.017.026-.029.044-.036.053a.065.065,0,0,1-.045.012.083.083,0,0,1-.055-.02.066.066,0,0,1-.022-.052.163.163,0,0,1,.034-.1.251.251,0,0,1,.109-.076.488.488,0,0,1,.184-.03.526.526,0,0,1,.193.029.185.185,0,0,1,.1.092.41.41,0,0,1,.029.167c0,.044,0,.081,0,.111s0,.065,0,.1a.366.366,0,0,0,.018.11.392.392,0,0,1,.017.073.067.067,0,0,1-.027.052.09.09,0,0,1-.061.025.082.082,0,0,1-.056-.028A.358.358,0,0,1,11.663,4.605Zm-.013-.27c-.027.009-.067.02-.119.032l-.108.024a.149.149,0,0,0-.058.031.083.083,0,0,0-.027.064.1.1,0,0,0,.032.072.12.12,0,0,0,.084.03.215.215,0,0,0,.1-.025.159.159,0,0,0,.068-.062.288.288,0,0,0,.025-.14Zm1.042.144a.153.153,0,0,1-.02.074.279.279,0,0,1-.064.077.334.334,0,0,1-.108.057.443.443,0,0,1-.146.022.356.356,0,0,1-.27-.1.375.375,0,0,1-.1-.27.457.457,0,0,1,.044-.2A.326.326,0,0,1,12.16,4a.4.4,0,0,1,.2-.048.409.409,0,0,1,.134.021.373.373,0,0,1,.1.055.273.273,0,0,1,.063.071.134.134,0,0,1,.023.071.07.07,0,0,1-.025.056.083.083,0,0,1-.06.024.061.061,0,0,1-.039-.012.2.2,0,0,1-.035-.039.268.268,0,0,0-.071-.077.159.159,0,0,0-.095-.027.162.162,0,0,0-.133.065.278.278,0,0,0-.051.177.322.322,0,0,0,.014.1.2.2,0,0,0,.037.076.158.158,0,0,0,.059.047.179.179,0,0,0,.076.016.175.175,0,0,0,.1-.026.219.219,0,0,0,.07-.079.208.208,0,0,1,.037-.049.072.072,0,0,1,.049-.018.07.07,0,0,1,.057.026A.082.082,0,0,1,12.692,4.479Zm.684-.1h-.365a.264.264,0,0,0,.026.112.174.174,0,0,0,.066.073.18.18,0,0,0,.091.025.239.239,0,0,0,.062-.008.287.287,0,0,0,.054-.025.333.333,0,0,0,.046-.036c.015-.012.035-.03.058-.052a.061.061,0,0,1,.041-.012.069.069,0,0,1,.046.015.058.058,0,0,1,.018.045.115.115,0,0,1-.02.059.239.239,0,0,1-.06.065.335.335,0,0,1-.1.051.422.422,0,0,1-.139.022.374.374,0,0,1-.28-.1.381.381,0,0,1-.1-.277.458.458,0,0,1,.025-.155.36.36,0,0,1,.072-.121.315.315,0,0,1,.116-.077.418.418,0,0,1,.154-.027A.363.363,0,0,1,13.374,4a.31.31,0,0,1,.117.119.316.316,0,0,1,.039.149.094.094,0,0,1-.041.092A.244.244,0,0,1,13.376,4.377Zm-.365-.107h.339a.225.225,0,0,0-.052-.142.15.15,0,0,0-.118-.048.153.153,0,0,0-.115.048A.243.243,0,0,0,13.011,4.27Z"/>
  <svg viewBox="0 0 68 68" x="1.05" y="7.45" width="1.1" height="1.1">
      <path fill="white" d="M4.28,50.32c12.24,22.65,44.57,23.86,58.29,2.01,1.19-1.89,4.02-7.25,4.06-9.33.07-2.93-4.33-4.32-5.92-1.15-1.42,2.82-1.88,5.28-3.85,8.16-11.91,17.36-38.69,15.4-47.82-3.55-1.08-2.24-1.61-6.7-4.77-6.45-1.64.13-3.05,1.74-2.86,3.41.19,1.62,2.03,5.35,2.87,6.9Z"/>
      <path fill="white" d="M55.15,16.22C52.29,5.37,42.06-1.04,31.01.14,19.47,1.36,12.07,11.97,12.01,23.07c-.06,11.77-.83,22.76,10.28,29.86,13.32,8.51,32.11-.24,33.47-16.03.39-4.57.48-16.53-.61-20.69ZM26.94,32.78c-.54,2.4-4.39,2.34-4.72-.4-.2-1.67-.23-7.23.02-8.83.11-.69.86-1.49,1.51-1.66,1.46-.38,3.05.29,3.24,1.87.17,1.42.22,7.8-.05,9.02ZM36.49,35.53c-.7,2.47-4.25,2.71-4.98-.21-.24-1.45.02-9.99.02-14.72.14-.9,1.07-1.73,1.97-1.89,1.55-.27,2.74.57,3.01,2.1,0,4.33.28,13.34-.02,14.72ZM45.8,32.38c-.05.41-.26,1.1-.53,1.4-1.25,1.02-3.5.73-4.19-1-.22-.98-.23-8.19-.04-9.23.43-2.36,4.24-2.22,4.7-.19.28,1.25.22,7.56.05,9.02Z"/>
  </svg>
</svg>
